<?xml version="1.0" encoding="utf-8"?>
<!-- Generator: Adobe Illustrator 23.0.5, SVG Export Plug-In . SVG Version: 6.00 Build 0)  -->
<svg version="1.1" id="Layer_1" xmlns="http://www.w3.org/2000/svg" xmlns:xlink="http://www.w3.org/1999/xlink" x="0px" y="0px"
	 viewBox="0 0 1364 555.3" style="enable-background:new 0 0 1364 555.3;" xml:space="preserve">
<style type="text/css">
	.st0{opacity:0.4;}
	.st1{opacity:0;}
	.st2{fill:#283646;}
	.st3{fill:#F0F0F0;}
	.st4{clip-path:url(#SVGID_2_);}
	.st5{clip-path:url(#SVGID_4_);}
	.st6{opacity:0.35;}
	.st7{opacity:0.6;}
	.st8{fill:#FFFFFF;}
	.st9{fill:url(#SVGID_5_);}
	.st10{fill:url(#SVGID_6_);}
	.st11{opacity:0.5;}
	.st12{fill:url(#SVGID_7_);}
	.st13{fill:url(#SVGID_8_);}
	.st14{fill:url(#SVGID_9_);}
	.st15{fill:url(#SVGID_10_);}
	.st16{fill:url(#SVGID_11_);}
	.st17{fill:url(#SVGID_12_);}
	.st18{opacity:0.1;}
	.st19{opacity:0.2;}
</style>
<title>Artboard 1</title>
<g class="st0">
	<g class="st1">
		<polygon class="st2" points="1191.7,33.7 1202.4,14.5 1213.5,33.1 		"/>
	</g>
	<path class="st2" d="M1190.4,34.4l11.9-21.4l12.5,20.8L1190.4,34.4z M1202.4,16l-9.4,16.9l19.3-0.5L1202.4,16z"/>
</g>
<g class="st1">
	<polygon class="st3" points="209.8,223.8 227.3,192.5 245.5,222.9 	"/>
</g>
<path class="st3" d="M207.8,225.1l19.5-35l20.4,34L207.8,225.1z M227.3,194.9l-15.4,27.6l31.5-0.8L227.3,194.9z"/>
<g>
	<defs>
		<path id="SVGID_1_" d="M207.8,225.1l19.5-35l20.4,34L207.8,225.1z M227.3,194.9l-15.4,27.6l31.5-0.8L227.3,194.9z"/>
	</defs>
	<clipPath id="SVGID_2_">
		<use xlink:href="#SVGID_1_"  style="overflow:visible;"/>
	</clipPath>
	<g class="st4">
		<polygon class="st3" points="211.9,215.4 243.4,214.6 243.4,222.6 211.9,222.6 		"/>
		<polygon class="st3" points="211.9,211.8 243.4,211 243.4,214.6 211.9,215.4 		"/>
		<polygon class="st3" points="243.4,211 211.9,211.8 211.9,194.9 243.4,194.9 		"/>
		<polygon class="st3" points="207.8,215.5 247.6,214.5 247.6,225.1 207.8,225.1 		"/>
		<polygon class="st3" points="207.8,211.9 247.6,210.9 247.6,214.5 207.8,215.5 		"/>
		<polygon class="st3" points="247.6,210.9 207.8,211.9 207.8,190.1 247.6,190.1 		"/>
	</g>
</g>
<g class="st1">
	<polygon class="st3" points="255.4,533.8 272.8,502.5 291,532.8 	"/>
</g>
<path class="st3" d="M253.3,535l19.5-35l20.4,34L253.3,535z M272.8,504.9l-15.4,27.6l31.5-0.8L272.8,504.9z"/>
<g>
	<defs>
		<path id="SVGID_3_" d="M253.3,535l19.5-35l20.4,34L253.3,535z M272.8,504.9l-15.4,27.6l31.5-0.8L272.8,504.9z"/>
	</defs>
	<clipPath id="SVGID_4_">
		<use xlink:href="#SVGID_3_"  style="overflow:visible;"/>
	</clipPath>
	<g class="st5">
		<polygon class="st3" points="257.4,525.4 289,524.6 289,532.5 257.4,532.5 		"/>
		<polygon class="st3" points="257.4,521.8 289,521 289,524.6 257.4,525.4 		"/>
		<polygon class="st3" points="289,521 257.4,521.8 257.4,504.9 289,504.9 		"/>
		<polygon class="st3" points="253.3,525.5 293.1,524.5 293.1,535 253.3,535 		"/>
		<polygon class="st3" points="253.3,521.9 293.1,520.9 293.1,524.5 253.3,525.5 		"/>
		<polygon class="st3" points="293.1,520.9 253.3,521.9 253.3,500.1 293.1,500.1 		"/>
	</g>
</g>
<g class="st1">
	<circle class="st3" cx="984.3" cy="110.4" r="11.2"/>
</g>
<path class="st3" d="M984.3,121.8h-0.7c-6.3-0.2-11.2-5.4-11.1-11.7c0.2-6.3,5.4-11.2,11.7-11.1c6.3,0.2,11.2,5.4,11.1,11.7
	C995.2,116.8,990.3,121.6,984.3,121.8z M984.3,99.4c-6,0.2-10.8,5.2-10.6,11.3s5.2,10.8,11.3,10.6s10.8-5.2,10.6-11.3
	c-0.2-5.8-4.8-10.4-10.6-10.6H984.3z"/>
<g class="st1">
	<circle class="st3" cx="1325.4" cy="34.4" r="11.2"/>
</g>
<path class="st3" d="M1325.4,45.8c-0.2,0-0.4,0-0.7,0c-6.3-0.4-11.1-5.8-10.8-12.1s5.8-11.1,12.1-10.7c6.3,0.4,11.1,5.8,10.7,12.1
	C1336.4,41.1,1331.4,45.8,1325.4,45.8L1325.4,45.8z M1325.4,23.5c-6-0.1-11,4.7-11.1,10.7c-0.1,5.9,4.6,10.9,10.5,11.1
	c6,0.3,11.2-4.3,11.5-10.3c0.3-6-4.3-11.2-10.3-11.5L1325.4,23.5z"/>
<g class="st6">
	<g class="st1">
		<path class="st2" d="M30.5,129.4l-21.3-9.5c2.5-6,9.3-8.8,15.3-6.3c6,2.5,8.8,9.3,6.3,15.3C30.6,129,30.6,129.2,30.5,129.4z"/>
	</g>
	<path class="st2" d="M30.9,130.4L8.2,120.3l0.3-0.7c2.8-6.3,10.1-9.1,16.4-6.3s9.1,10.1,6.3,16.4l0,0L30.9,130.4z M10.1,119.5
		l20,8.9c1.9-5.8-1.3-12-7-13.9C18.1,112.9,12.7,115,10.1,119.5z"/>
</g>
<g class="st7">
	<g class="st1">
		<polygon class="st8" points="600.2,497.7 585.3,500.4 582.9,515.3 597.7,512.6 		"/>
	</g>
	
		<linearGradient id="SVGID_5_" gradientUnits="userSpaceOnUse" x1="694.9608" y1="319.9437" x2="694.9608" y2="327.7537" gradientTransform="matrix(0.7071 0.7071 0.7071 -0.7071 -128.8719 244.049)">
		<stop  offset="0" style="stop-color:#303030"/>
		<stop  offset="1" style="stop-color:#303030"/>
	</linearGradient>
	<path class="st9" d="M582.6,515.5l2.5-15.4l15.3-2.8l-2.6,15.4L582.6,515.5z M585.5,500.5l-2.4,14.5l14.4-2.6l2.4-14.4L585.5,500.5
		z"/>
</g>
<g class="st7">
	<g class="st1">
		<polygon class="st8" points="785.5,6.6 767.8,14.6 769.4,34 787.1,25.9 		"/>
	</g>
	
		<linearGradient id="SVGID_6_" gradientUnits="userSpaceOnUse" x1="871.9745" y1="711.2925" x2="871.9745" y2="721.3425" gradientTransform="matrix(0.859 0.5119 0.5119 -0.859 -338.3437 189.2757)">
		<stop  offset="0" style="stop-color:#303030"/>
		<stop  offset="1" style="stop-color:#303030"/>
	</linearGradient>
	<path class="st10" d="M769.1,34.4l-1.7-20l18.3-8.3l1.7,20L769.1,34.4z M768,14.8l1.6,18.8l17.2-7.8L785.2,7L768,14.8z"/>
</g>
<g class="st11">
	<g class="st1">
		
			<rect x="836.1" y="227.7" transform="matrix(0.309 -0.9511 0.9511 0.309 358.9792 966.6487)" class="st2" width="17.2" height="17.2"/>
	</g>
	<path class="st2" d="M850.4,247.5l-16.9-5.5l5.5-16.9l16.9,5.5L850.4,247.5z M834.3,241.6l15.8,5.1l5.1-15.7l-15.8-5.1L834.3,241.6
		z"/>
</g>
<g class="st7">
	<g class="st1">
		
			<rect x="1025.3" y="120" transform="matrix(0.8461 -0.533 0.533 0.8461 88.5814 574.5558)" class="st8" width="27.8" height="27.8"/>
	</g>
	
		<linearGradient id="SVGID_7_" gradientUnits="userSpaceOnUse" x1="847.6019" y1="326.6921" x2="847.6019" y2="334.7321" gradientTransform="matrix(0.64 -0.7684 -0.7684 -0.64 750.9589 996.8146)">
		<stop  offset="0" style="stop-color:#303030"/>
		<stop  offset="1" style="stop-color:#303030"/>
	</linearGradient>
	<path class="st12" d="M1059.1,138.4l-24.4,15.4l-15.4-24.4l24.4-15.4L1059.1,138.4z M1035.1,152.4l22.7-14.3l-14.3-22.7l-22.7,14.3
		L1035.1,152.4z"/>
</g>
<g class="st7">
	<g class="st1">
		
			<rect x="229.5" y="30.4" transform="matrix(0.8461 -0.533 0.533 0.8461 13.8377 136.5795)" class="st8" width="27.8" height="27.8"/>
	</g>
	
		<linearGradient id="SVGID_8_" gradientUnits="userSpaceOnUse" x1="407.0785" y1="995.5109" x2="407.0785" y2="1003.5409" gradientTransform="matrix(0.64 -0.7684 -0.7684 -0.64 750.9589 996.8146)">
		<stop  offset="0" style="stop-color:#303030"/>
		<stop  offset="1" style="stop-color:#303030"/>
	</linearGradient>
	<path class="st13" d="M263.3,48.8l-24.4,15.4l-15.4-24.4l24.4-15.4L263.3,48.8z M239.2,62.8L262,48.5l-14.4-22.7l-22.7,14.3
		L239.2,62.8z"/>
</g>
<g class="st7">
	<g class="st1">
		<polygon class="st8" points="34.9,408.9 29.1,417.8 18.5,417.2 13.6,407.8 19.5,398.8 30.1,399.4 		"/>
	</g>
	
		<linearGradient id="SVGID_9_" gradientUnits="userSpaceOnUse" x1="-560.809" y1="-239.4149" x2="-560.809" y2="-239.3049" gradientTransform="matrix(76.43 4.01 -3.47 66.16 42056.5703 18489.1094)">
		<stop  offset="0" style="stop-color:#303030"/>
		<stop  offset="1" style="stop-color:#303030"/>
	</linearGradient>
	<path class="st14" d="M29.2,418l-10.9-0.6l-4.9-9.7l5.9-9.1l10.9,0.6l5,9.7L29.2,418z M18.6,417l10.4,0.5l5.7-8.7l-4.7-9.3
		L19.6,399l-5.6,8.7L18.6,417z"/>
</g>
<g class="st7">
	<g class="st1">
		<polygon class="st8" points="1308.2,515.8 1302.3,524.7 1291.7,524.2 1286.9,514.7 1292.7,505.8 1303.3,506.3 		"/>
	</g>
	
		<linearGradient id="SVGID_10_" gradientUnits="userSpaceOnUse" x1="-544.1226" y1="-238.8149" x2="-544.1226" y2="-238.705" gradientTransform="matrix(76.43 4.01 -3.47 66.16 42056.5703 18489.1094)">
		<stop  offset="0" style="stop-color:#303030"/>
		<stop  offset="1" style="stop-color:#303030"/>
	</linearGradient>
	<path class="st15" d="M1302.5,525l-10.9-0.6l-4.9-9.7l5.9-9.1l10.9,0.6l5,9.7L1302.5,525z M1291.9,524l10.4,0.5l5.7-8.7l-4.7-9.3
		l-10.4-0.6l-5.7,8.7L1291.9,524z"/>
</g>
<g class="st0">
	<g class="st1">
		
			<linearGradient id="SVGID_11_" gradientUnits="userSpaceOnUse" x1="528.45" y1="320.955" x2="549.72" y2="320.955" gradientTransform="matrix(1 0 0 -1 0 558)">
			<stop  offset="0" style="stop-color:#303030"/>
			<stop  offset="1" style="stop-color:#303030"/>
		</linearGradient>
		<polygon class="st16" points="549.7,237.6 543.9,246.5 533.3,246 528.5,236.5 534.3,227.6 544.9,228.1 		"/>
	</g>
	
		<linearGradient id="SVGID_12_" gradientUnits="userSpaceOnUse" x1="528.17" y1="320.955" x2="549.96" y2="320.955" gradientTransform="matrix(1 0 0 -1 0 558)">
		<stop  offset="0" style="stop-color:#303030"/>
		<stop  offset="1" style="stop-color:#303030"/>
	</linearGradient>
	<path class="st17" d="M544,246.8l-10.9-0.6l-5-9.7l5.9-9.1l10.9,0.6l5,9.7L544,246.8z M533.4,245.8l10.4,0.6l5.7-8.7l-4.7-9.3
		l-10.4-0.6l-5.7,8.7L533.4,245.8z"/>
</g>
<g class="st18">
	<path class="st2" d="M366.1,361l-38.4-8.9l26.6-28.6L366.1,361z M343.1,347.4l10.9,2.5l-3.4-10.6L343.1,347.4z"/>
</g>
<g class="st18">
	<path class="st2" d="M80.3,507.2l-25.9,26.1l-3-3c-7.4-7-7.7-18.6-0.7-26c7-7.4,18.6-7.7,26-0.7c0.2,0.2,0.4,0.4,0.6,0.6
		L80.3,507.2z M55,520.7L67.6,508c-5.1-1.8-10.8,0.9-12.6,6C54.2,516.2,54.2,518.5,55,520.7z"/>
</g>
<g class="st19">
	<path class="st2" d="M1154.6,516.1l-24.6-11l1.3-2.9c3-6.8,11-9.8,17.8-6.8c6.8,3,9.8,11,6.8,17.8L1154.6,516.1z M1138.9,502.3
		l12,5.3c-0.1-4-3.4-7.2-7.4-7.1C1141.8,500.6,1140.2,501.2,1138.9,502.3z"/>
</g>
<g class="st18">
	<path class="st2" d="M107.4,258.4l-24.6-11l1.3-2.9c3-6.8,11-9.8,17.8-6.8c6.8,3,9.8,11,6.8,17.8L107.4,258.4z M91.7,244.6l12,5.3
		c-0.1-4-3.4-7.2-7.4-7.1C94.6,242.8,92.9,243.5,91.7,244.6z"/>
</g>
<path class="st3" d="M1019.4,340.4l-22.3,28.3l-3.3-2.6c-8.1-5.7-10-17-4.3-25.1c5.7-8.1,17-10,25.1-4.3c0.5,0.4,1,0.7,1.4,1.1
	L1019.4,340.4z M996.3,356.3l10.8-13.7c-5.2-1.2-10.4,2.1-11.6,7.3C995.1,352,995.3,354.3,996.3,356.3z"/>
<g class="st18">
	<path class="st2" d="M1313,370.1l-38-12.4l12.3-38l38,12.4L1313,370.1z M1286.6,351.8l20.4,6.6l6.6-20.4l-20.4-6.6L1286.6,351.8z"
		/>
</g>
<g class="st18">
	<path class="st2" d="M845.2,444.5l-23.5-13l-0.5-26.8l23-13.9l23.5,13l0.5,26.9L845.2,444.5z M829.6,426.8l15.4,8.5l15.1-9.1
		l-0.4-17.6l-15.4-8.6l-15.1,9.1L829.6,426.8z"/>
</g>
<g class="st18">
	<path class="st2" d="M1302.2,202.5l-25.5-1.3l-11.6-22.8l13.9-21.5l25.5,1.3l11.7,22.8L1302.2,202.5z M1281.5,193.8l16.8,0.9
		l9.2-14.1l-7.7-15l-16.8-0.9l-9.2,14.1L1281.5,193.8z"/>
</g>
</svg>
