<svg id="Layer_1" data-name="Layer 1" xmlns="http://www.w3.org/2000/svg" xmlns:xlink="http://www.w3.org/1999/xlink" viewBox="0 0 1364 555.35"><defs><style>.cls-1{fill:#f0f0f0;}.cls-2{opacity:0.4;}.cls-3{opacity:0;}.cls-4{fill:#283646;}.cls-5{clip-path:url(#clip-path);}.cls-6{clip-path:url(#clip-path-2);}.cls-7{opacity:0.35;}.cls-8{opacity:0.6;}.cls-9{fill:#fff;}.cls-10{fill:url(#linear-gradient);}.cls-11{fill:url(#linear-gradient-2);}.cls-12{opacity:0.5;}.cls-13{fill:url(#linear-gradient-3);}.cls-14{fill:url(#linear-gradient-4);}.cls-15{fill:url(#linear-gradient-5);}.cls-16{fill:url(#linear-gradient-6);}.cls-17{fill:url(#linear-gradient-7);}.cls-18{fill:url(#linear-gradient-8);}.cls-19{opacity:0.2;}.cls-20{opacity:0.3;}</style><clipPath id="clip-path"><path class="cls-1" d="M207.77,225.06l19.47-35,20.38,34Zm19.55-30.15-15.4,27.64,31.51-.8Z"/></clipPath><clipPath id="clip-path-2"><path class="cls-1" d="M253.29,535l19.47-34.95L293.14,534Zm19.55-30.15-15.4,27.64,31.52-.8Z"/></clipPath><linearGradient id="linear-gradient" x1="591.54" y1="510.37" x2="591.54" y2="502.56" gradientTransform="translate(531.38 -269.94) rotate(45)" gradientUnits="userSpaceOnUse"><stop offset="0" stop-color="#303030"/><stop offset="1" stop-color="#303030"/></linearGradient><linearGradient id="linear-gradient-2" x1="777.41" y1="25.29" x2="777.41" y2="15.24" gradientTransform="translate(119.94 -395.08) rotate(30.79)" xlink:href="#linear-gradient"/><linearGradient id="linear-gradient-3" x1="1120.72" y1="241.06" x2="1120.72" y2="233.02" gradientTransform="translate(221.37 946.52) rotate(-50.21)" xlink:href="#linear-gradient"/><linearGradient id="linear-gradient-4" x1="707.38" y1="-556.39" x2="707.38" y2="-564.42" gradientTransform="translate(221.37 946.52) rotate(-50.21)" xlink:href="#linear-gradient"/><linearGradient id="linear-gradient-5" x1="-287.58" y1="1062.13" x2="-287.58" y2="1062.02" gradientTransform="matrix(76.43, 4.01, 3.47, -66.16, 18320.53, 71824.38)" xlink:href="#linear-gradient"/><linearGradient id="linear-gradient-6" x1="-270.89" y1="1061.53" x2="-270.89" y2="1061.42" gradientTransform="matrix(76.43, 4.01, 3.47, -66.16, 18320.53, 71824.38)" xlink:href="#linear-gradient"/><linearGradient id="linear-gradient-7" x1="528.45" y1="237.04" x2="549.72" y2="237.04" gradientTransform="matrix(1, 0, 0, 1, 0, 0)" xlink:href="#linear-gradient"/><linearGradient id="linear-gradient-8" x1="528.19" y1="237.04" x2="549.98" y2="237.04" gradientTransform="matrix(1, 0, 0, 1, 0, 0)" xlink:href="#linear-gradient"/></defs><title>Artboard 1</title><g class="cls-2"><g class="cls-3"><polygon class="cls-4" points="1191.71 33.68 1202.37 14.54 1213.52 33.12 1191.71 33.68"/></g><path class="cls-4" d="M1190.44,34.44l11.9-21.36,12.46,20.75Zm12-18.43L1193,32.91l19.26-.49Z"/></g><g class="cls-3"><polygon class="cls-1" points="209.84 223.8 227.28 192.5 245.53 222.9 209.84 223.8"/></g><path class="cls-1" d="M207.77,225.06l19.47-35,20.38,34Zm19.55-30.15-15.4,27.64,31.51-.8Z"/><g class="cls-5"><polygon class="cls-1" points="211.92 215.42 243.43 214.62 243.43 222.55 211.92 222.55 211.92 215.42"/><polygon class="cls-1" points="211.92 211.81 243.43 211.01 243.43 214.62 211.92 215.42 211.92 211.81"/><polygon class="cls-1" points="243.43 211.01 211.92 211.81 211.92 194.91 243.43 194.91 243.43 211.01"/><polygon class="cls-1" points="207.77 215.53 247.62 214.52 247.62 225.06 207.77 225.06 207.77 215.53"/><polygon class="cls-1" points="207.77 211.91 247.62 210.91 247.62 214.52 207.77 215.53 207.77 211.91"/><polygon class="cls-1" points="247.62 210.91 207.77 211.91 207.77 190.1 247.62 190.1 247.62 210.91"/></g><g class="cls-3"><polygon class="cls-1" points="255.37 533.75 272.8 502.46 291.05 532.85 255.37 533.75"/></g><path class="cls-1" d="M253.29,535l19.47-34.95L293.14,534Zm19.55-30.15-15.4,27.64,31.52-.8Z"/><g class="cls-6"><polygon class="cls-1" points="257.44 525.37 288.96 524.57 288.96 532.5 257.44 532.5 257.44 525.37"/><polygon class="cls-1" points="257.44 521.76 288.96 520.96 288.96 524.57 257.44 525.37 257.44 521.76"/><polygon class="cls-1" points="288.96 520.96 257.44 521.76 257.44 504.86 288.96 504.86 288.96 520.96"/><polygon class="cls-1" points="253.29 525.48 293.14 524.47 293.14 535.01 253.29 535.01 253.29 525.48"/><polygon class="cls-1" points="253.29 521.87 293.14 520.86 293.14 524.47 253.29 525.48 253.29 521.87"/><polygon class="cls-1" points="293.14 520.86 253.29 521.87 253.29 500.06 293.14 500.06 293.14 520.86"/></g><g class="cls-3"><circle class="cls-1" cx="984.29" cy="110.36" r="11.17"/></g><path class="cls-1" d="M984.3,121.78l-.67,0a11.39,11.39,0,1,1,.67,0Zm0-22.34a10.95,10.95,0,1,0,.65,0Z"/><g class="cls-3"><circle class="cls-1" cx="1325.36" cy="34.44" r="11.17"/></g><path class="cls-1" d="M1325.36,45.85c-.22,0-.44,0-.66,0A11.41,11.41,0,1,1,1326,23.05a11.41,11.41,0,0,1-.65,22.8Zm0-22.33a10.92,10.92,0,0,0-.61,21.83A10.92,10.92,0,0,0,1326,23.54Z"/><g class="cls-7"><g class="cls-3"><path class="cls-4" d="M30.48,129.39,9.13,119.88a11.69,11.69,0,1,1,21.35,9.51Z"/></g><path class="cls-4" d="M30.85,130.36,8.16,120.25l.3-.67a12.42,12.42,0,0,1,22.69,10.11ZM10.12,119.52l20,8.89a11,11,0,0,0-20-8.89Z"/></g><g class="cls-8"><g class="cls-3"><polygon class="cls-9" points="600.21 497.67 585.35 500.36 582.87 515.25 597.73 512.57 600.21 497.67"/></g><path class="cls-10" d="M582.6,515.53l2.55-15.36,15.33-2.77-2.56,15.36Zm2.94-15L583.14,515l14.39-2.6L599.94,498Z"/></g><g class="cls-8"><g class="cls-3"><polygon class="cls-9" points="785.46 6.55 767.75 14.6 769.36 33.99 787.07 25.93 785.46 6.55"/></g><path class="cls-11" d="M769.11,34.42l-1.66-20,18.26-8.3,1.66,20Zm-1.06-19.64,1.57,18.78,17.15-7.81L785.2,7Z"/></g><g class="cls-12"><g class="cls-3"><rect class="cls-4" x="836.12" y="227.68" width="17.2" height="17.2" transform="translate(358.98 966.64) rotate(-72)"/></g><path class="cls-4" d="M850.44,247.5,833.5,242,839,225.06l16.94,5.5Zm-16.17-5.89,15.78,5.13L855.18,231l-15.78-5.13Z"/></g><g class="cls-8"><g class="cls-3"><rect class="cls-9" x="1106.8" y="223.12" width="27.83" height="27.83" transform="translate(46.14 633.88) rotate(-32.21)"/></g><path class="cls-13" d="M1140.58,241.55l-24.37,15.36-15.36-24.38,24.38-15.36Zm-24.07,14,22.72-14.32-14.31-22.72-22.72,14.32Z"/></g><g class="cls-8"><g class="cls-3"><rect class="cls-9" x="229.52" y="30.41" width="27.83" height="27.83" transform="translate(13.84 136.58) rotate(-32.21)"/></g><path class="cls-14" d="M263.3,48.84,238.92,64.2,223.56,39.82l24.38-15.36Zm-24.07,14L262,48.53,247.64,25.81,224.91,40.13Z"/></g><g class="cls-8"><g class="cls-3"><polygon class="cls-9" points="34.92 408.86 29.11 417.79 18.48 417.23 13.65 407.75 19.45 398.82 30.07 399.37 34.92 408.86"/></g><path class="cls-15" d="M29.22,418l-10.88-.57-4.94-9.72,5.93-9.14,10.88.57,5,9.71Zm-10.6-1,10.37.54,5.68-8.71-4.74-9.26-10.37-.54-5.65,8.71Z"/></g><g class="cls-8"><g class="cls-3"><polygon class="cls-9" points="1308.17 515.81 1302.35 524.74 1291.72 524.18 1286.89 514.7 1292.69 505.77 1303.31 506.33 1308.17 515.81"/></g><path class="cls-16" d="M1302.46,525l-10.88-.57-4.94-9.71,5.93-9.15,10.88.57,5,9.72Zm-10.6-1,10.37.54,5.68-8.71-4.74-9.26L1292.8,506l-5.65,8.71Z"/></g><g class="cls-2"><g class="cls-3"><polygon class="cls-17" points="549.72 237.6 543.9 246.53 533.28 245.97 528.45 236.48 534.25 227.56 544.87 228.11 549.72 237.6"/></g><path class="cls-18" d="M544,246.76l-10.88-.57-4.95-9.72,5.94-9.14,10.88.57,5,9.71Zm-10.6-1,10.37.55,5.68-8.71-4.74-9.26-10.37-.55-5.65,8.72Z"/></g><g class="cls-19"><path class="cls-4" d="M366.06,361l-38.42-8.88,26.56-28.58Zm-22.93-13.62L354,349.9l-3.37-10.64Z"/></g><g class="cls-19"><path class="cls-4" d="M80.3,507.21,54.41,533.35l-3-3a18.4,18.4,0,1,1,25.89-26.14ZM55,520.66,67.61,508A9.89,9.89,0,0,0,55,520.66Z"/></g><g class="cls-19"><path class="cls-4" d="M1154.63,516.13l-24.62-11,1.27-2.85a13.48,13.48,0,0,1,24.62,11Zm-15.76-13.83,12,5.33a7.25,7.25,0,0,0-12-5.33Z"/></g><g class="cls-19"><path class="cls-4" d="M107.41,258.4l-24.62-11,1.27-2.85a13.47,13.47,0,1,1,24.62,11ZM91.65,244.57l12,5.33a7.25,7.25,0,0,0-12-5.33Z"/></g><path class="cls-1" d="M1019.39,340.38l-22.25,28.26-3.26-2.57a18,18,0,1,1,22.24-28.25Zm-23.06,15.87,10.82-13.74a9.68,9.68,0,0,0-10.82,13.74Z"/><g class="cls-19"><path class="cls-4" d="M1313,370.12l-38-12.36,12.35-38,38,12.36Zm-26.36-18.3,20.41,6.63,6.64-20.42-20.42-6.63Z"/></g><g class="cls-19"><path class="cls-4" d="M845.2,444.5l-23.47-13-.5-26.83,23-13.86,23.48,13,.55,26.86Zm-15.6-17.71L845,435.31l15.14-9.09-.36-17.65L844.38,400l-15.1,9.11Z"/></g><g class="cls-20"><path class="cls-4" d="M1302.24,202.52l-25.54-1.34-11.61-22.81L1279,156.91l25.54,1.33,11.68,22.81Zm-20.76-8.7,16.79.88,9.2-14.11-7.68-15-16.79-.88-9.15,14.11Z"/></g></svg>