<?xml version="1.0" encoding="utf-8"?>
<!-- Generator: Adobe Illustrator 23.0.5, SVG Export Plug-In . SVG Version: 6.00 Build 0)  -->
<svg version="1.1" id="Layer_1" xmlns="http://www.w3.org/2000/svg" xmlns:xlink="http://www.w3.org/1999/xlink" x="0px" y="0px"
	 viewBox="0 0 1364 617.8" style="enable-background:new 0 0 1364 617.8;" xml:space="preserve">
<style type="text/css">
	.st0{opacity:0.1;fill:#FFFFFF;}
	.st1{opacity:0.1;}
	.st2{fill:#F0F0F0;}
	.st3{opacity:0.1;fill:#F0F0F0;}
	.st4{opacity:0.2;}
	.st5{clip-path:url(#SVGID_2_);}
	.st6{fill:#B4B9BE;}
	.st7{opacity:0.3;}
	.st8{opacity:0;}
	.st9{fill:#252525;}
	.st10{fill:#224263;}
	.st11{opacity:4.000000e-02;}
</style>
<title>Artboard 2</title>
<polygon class="st0" points="557.1,204.6 552.6,211.4 544.5,211 540.8,203.7 545.2,196.9 553.4,197.3 "/>
<g class="st1">
	<polygon class="st2" points="105.7,595.8 123.1,564.5 141.4,594.9 	"/>
</g>
<path class="st3" d="M103.6,597.1l19.5-35l20.4,34L103.6,597.1z M123.2,566.9l-15.4,27.6l31.5-0.8L123.2,566.9z"/>
<g class="st4">
	<defs>
		<path id="SVGID_1_" class="st4" d="M103.6,597.1l19.5-35l20.4,34L103.6,597.1z M123.2,566.9l-15.4,27.6l31.5-0.8L123.2,566.9z"/>
	</defs>
	<use xlink:href="#SVGID_1_"  style="overflow:visible;fill:#B4B9BE;"/>
	<clipPath id="SVGID_2_">
		<use xlink:href="#SVGID_1_"  style="overflow:visible;"/>
	</clipPath>
	<g class="st5">
		<polygon class="st6" points="107.8,587.5 139.3,586.7 139.3,594.6 107.8,594.6 		"/>
		<polygon class="st6" points="107.8,583.8 139.3,583 139.3,586.7 107.8,587.5 		"/>
		<polygon class="st6" points="139.3,583 107.8,583.8 107.8,566.9 139.3,566.9 		"/>
		<polygon class="st6" points="103.6,587.5 143.5,586.5 143.5,597.1 103.6,597.1 		"/>
		<polygon class="st6" points="103.6,583.9 143.5,582.9 143.5,586.5 103.6,587.5 		"/>
		<polygon class="st6" points="143.5,582.9 103.6,583.9 103.6,562.1 143.5,562.1 		"/>
	</g>
</g>
<g class="st7">
	<g class="st8">
		<polygon class="st9" points="549.5,297.3 534.6,300 532.1,314.9 547,312.2 		"/>
	</g>
	<path class="st9" d="M531.8,315.2l2.6-15.4l15.3-2.8l-2.5,15.4L531.8,315.2z M534.8,300.2l-2.4,14.4l14.4-2.6l2.4-14.4L534.8,300.2
		z"/>
</g>
<g class="st7">
	<g class="st8">
		<polygon class="st9" points="791.9,93.7 787.8,79.2 772.7,78.2 776.8,92.7 		"/>
	</g>
	<path class="st9" d="M772.4,78l15.5,1l4.3,15l-15.5-1L772.4,78z M787.6,79.5l-14.6-1l4,14.1l14.6,1L787.6,79.5z"/>
</g>
<g class="st7">
	<g class="st8">
		<polygon class="st9" points="1225.5,85.6 1203.9,89.5 1200.3,111.1 1221.8,107.2 		"/>
	</g>
	<path class="st9" d="M1199.9,111.5l3.7-22.3l22.3-4l-3.7,22.3L1199.9,111.5z M1204.1,89.8l-3.5,21l20.9-3.8l3.5-21L1204.1,89.8z"/>
</g>
<g class="st1">
	<g class="st8">
		
			<rect x="1122.3" y="218.5" transform="matrix(0.309 -0.9511 0.9511 0.309 561.7834 1255.2151)" class="st9" width="44.9" height="44.9"/>
	</g>
	<path class="st9" d="M1159.7,270.3l-44.2-14.4l14.4-44.2l44.2,14.4L1159.7,270.3z M1117.4,254.9l41.2,13.4l13.4-41.2l-41.2-13.4
		L1117.4,254.9z"/>
</g>
<g class="st1">
	<g class="st8">
		<polygon class="st9" points="1351.6,525.6 1337.2,547.7 1311,546.3 1299.1,522.9 1313.4,500.9 1339.6,502.3 		"/>
	</g>
	<path class="st9" d="M1337.5,548.2l-26.8-1.4l-12.2-24l14.6-22.5l26.8,1.4l12.3,24L1337.5,548.2z M1311.4,545.8l25.6,1.3l14-21.5
		l-11.7-22.8l-25.6-1.3l-13.9,21.5L1311.4,545.8z"/>
</g>
<g class="st7">
	<g class="st8">
		<polygon class="st9" points="1027.7,359.3 1021.8,368.2 1011.2,367.6 1006.4,358.2 1012.2,349.2 1022.8,349.8 		"/>
	</g>
	<path class="st9" d="M1022,368.4l-10.9-0.6l-5-9.7l5.9-9.1l10.9,0.6l5,9.7L1022,368.4z M1011.4,367.4l10.4,0.5l5.7-8.7l-4.7-9.3
		l-10.4-0.5l-5.7,8.7L1011.4,367.4z"/>
</g>
<g class="st7">
	<g class="st8">
		<polygon class="st9" points="27,189.9 21.2,198.8 10.6,198.3 5.8,188.8 11.6,179.8 22.2,180.4 		"/>
	</g>
	<path class="st9" d="M21.3,199l-10.9-0.6l-4.9-9.7l5.9-9.1l10.9,0.6l5,9.7L21.3,199z M10.7,198l10.4,0.5l5.7-8.7l-4.7-9.3L11.7,180
		L6,188.8L10.7,198z"/>
</g>
<g class="st1">
	<g class="st8">
		<polygon class="st9" points="308.8,286.2 296.1,305.6 273,304.4 262.5,283.7 275.1,264.3 298.2,265.5 		"/>
	</g>
	<path class="st9" d="M296.4,306.1l-23.7-1.2l-10.8-21.1l12.9-19.9l23.7,1.3l10.8,21.1L296.4,306.1z M273.3,303.9l22.5,1.2
		l12.4-18.9L297.9,266l-22.5-1.2l-12.3,19L273.3,303.9z"/>
</g>
<g class="st1">
	<path class="st10" d="M1165.1,569.1l-29.8,25.8l-7.5-38.3L1165.1,569.1z M1140.6,579.6l8.5-7.3l-10.6-3.5L1140.6,579.6z"/>
</g>
<g class="st11">
	<path class="st10" d="M339.7,154.4l-38.4-8.9l26.6-28.5L339.7,154.4z M316.7,140.8l10.9,2.5l-3.4-10.6L316.7,140.8z"/>
</g>
<g class="st11">
	<path class="st10" d="M537.4,98.3c-0.3,0-0.7,0-1,0c-9.9-0.6-17.5-9.2-16.8-19.1c0.6-9.9,9.1-17.4,18.9-16.9
		c9.9,0.3,17.8,8.6,17.5,18.5S547.4,98.7,537.4,98.3L537.4,98.3z M537.4,68.1c-6.8,0.2-12.1,5.9-11.9,12.6
		c0.2,6.8,5.9,12.1,12.6,11.9c6.8-0.2,12.1-5.9,11.9-12.6c-0.2-6.5-5.4-11.7-11.9-11.9C537.8,68.1,537.6,68.1,537.4,68.1L537.4,68.1
		z"/>
</g>
<g class="st11">
	<path class="st10" d="M1325.4,57.3c-0.3,0-0.6,0-0.9,0c-8.9-0.5-15.7-8.1-15.2-17s8.1-15.7,17-15.2c8.9,0.4,15.7,8,15.3,16.9
		C1341.2,50.7,1334,57.4,1325.4,57.3L1325.4,57.3z M1325.4,30.2c-6.1,0.2-10.9,5.3-10.8,11.4c0.2,6.1,5.3,10.9,11.4,10.8
		c6.1-0.2,10.9-5.3,10.8-11.4c-0.2-5.9-4.9-10.6-10.8-10.8H1325.4z"/>
</g>
<g class="st11">
	<path class="st10" d="M1257.6,382.9c-0.5,0-0.9,0-1.4,0c-13.4-0.8-23.6-12.2-22.8-25.6s12.2-23.6,25.6-22.8
		c13.4,0.7,23.7,12,23,25.4C1281.4,372.9,1270.6,383,1257.6,382.9L1257.6,382.9z M1257.6,342c-9.2,0.3-16.5,8-16.2,17.2
		c0.3,9.2,8,16.5,17.2,16.2s16.5-8,16.2-17.2c-0.3-8.8-7.4-15.9-16.2-16.2H1257.6z"/>
</g>
<g class="st11">
	<path class="st10" d="M172.3,49.3l-29.7-24.2l2.8-3.4c6.7-8.2,18.7-9.5,27-2.8s9.5,18.7,2.8,27L172.3,49.3z M155.7,24.5l14.5,11.8
		c1.4-5.5-2-11.1-7.6-12.5C160.3,23.2,157.9,23.4,155.7,24.5L155.7,24.5z"/>
</g>
<g class="st1">
	<path class="st6" d="M40.5,469.1l-22.3,28.3l-3.2-2.6c-7.4-6.6-8.1-18-1.5-25.4c6-6.8,16.2-8,23.7-2.9L40.5,469.1z M17.4,485
		l10.8-13.7c-5.2-1.2-10.4,2.1-11.6,7.3C16.1,480.7,16.4,483,17.4,485z"/>
</g>
<g class="st11">
	<path class="st10" d="M328.7,497.6l-22.5,16.2L290,491.2l22.5-16.2L328.7,497.6z M307.7,504.8l12.1-8.7l-8.7-12.1l-12.1,8.7
		L307.7,504.8z"/>
</g>
<g class="st11">
	<path class="st10" d="M777.5,605.6l-38-12.4l12.3-38l38,12.4L777.5,605.6z M751.1,587.3l20.4,6.6l6.6-20.4l-20.4-6.6L751.1,587.3z"
		/>
</g>
<g class="st11">
	<path class="st10" d="M939.4,221.2l-25.5-1.4L902.3,197l13.9-21.5l25.5,1.3l11.7,22.8L939.4,221.2z M918.7,212.5l16.8,0.9l9.2-14.1
		l-7.7-15l-16.8-0.9l-9.2,14.1L918.7,212.5z"/>
</g>
</svg>
