<svg id="Layer_1" data-name="Layer 1" xmlns="http://www.w3.org/2000/svg" xmlns:xlink="http://www.w3.org/1999/xlink" viewBox="0 0 1364 617.79"><defs><style>.cls-1{fill:#f0f0f0;}.cls-2{fill:#fff;}.cls-3{opacity:0;}.cls-4{clip-path:url(#clip-path);}.cls-5{opacity:0.4;}.cls-6{fill:#252525;}.cls-7{opacity:0.3;}.cls-8{opacity:0.6;}.cls-9{opacity:0.2;}.cls-10{fill:#224263;}.cls-11{fill:#b4b9be;}</style><clipPath id="clip-path"><path class="cls-1" d="M103.62,597.08l19.47-35,20.38,34Zm19.55-30.15-15.4,27.64,31.51-.79Z"/></clipPath></defs><title>Artboard 2</title><polygon class="cls-2" points="557.08 204.59 552.62 211.43 544.48 211 540.78 203.73 545.22 196.89 553.36 197.32 557.08 204.59"/><g class="cls-3"><polygon class="cls-1" points="105.69 595.83 123.13 564.53 141.38 594.93 105.69 595.83"/></g><path class="cls-1" d="M103.62,597.08l19.47-35,20.38,34Zm19.55-30.15-15.4,27.64,31.51-.79Z"/><g class="cls-4"><polygon class="cls-1" points="107.77 587.45 139.28 586.65 139.28 594.57 107.77 594.57 107.77 587.45"/><polygon class="cls-1" points="107.77 583.84 139.28 583.04 139.28 586.65 107.77 587.45 107.77 583.84"/><polygon class="cls-1" points="139.28 583.04 107.77 583.84 107.77 566.93 139.28 566.93 139.28 583.04"/><polygon class="cls-1" points="103.62 587.55 143.47 586.54 143.47 597.08 103.62 597.08 103.62 587.55"/><polygon class="cls-1" points="103.62 583.94 143.47 582.93 143.47 586.54 103.62 587.55 103.62 583.94"/><polygon class="cls-1" points="143.47 582.93 103.62 583.94 103.62 562.13 143.47 562.13 143.47 582.93"/></g><g class="cls-5"><g class="cls-3"><polygon class="cls-6" points="549.45 297.3 534.59 299.99 532.11 314.88 546.97 312.2 549.45 297.3"/></g><path class="cls-6" d="M531.84,315.16l2.56-15.36L549.72,297l-2.55,15.36Zm2.95-15-2.4,14.43,14.39-2.6,2.4-14.43Z"/></g><g class="cls-5"><g class="cls-3"><polygon class="cls-6" points="791.88 93.74 787.75 79.22 772.69 78.21 776.81 92.73 791.88 93.74"/></g><path class="cls-6" d="M772.39,78,787.92,79l4.26,15-15.54-1Zm15.19,1.47-14.59-1,4,14.07,14.59,1Z"/></g><g class="cls-5"><g class="cls-3"><polygon class="cls-6" points="1225.46 85.57 1203.86 89.48 1200.25 111.13 1221.85 107.22 1225.46 85.57"/></g><path class="cls-6" d="M1199.86,111.53l3.72-22.33,22.27-4-3.72,22.33Zm4.28-21.77-3.49,21,20.92-3.78,3.49-21Z"/></g><g class="cls-7"><g class="cls-3"><rect class="cls-6" x="1122.26" y="218.53" width="44.93" height="44.93" transform="translate(561.78 1255.22) rotate(-72)"/></g><path class="cls-6" d="M1159.65,270.3l-44.23-14.38,14.37-44.23L1174,226.07Zm-42.24-15.39,41.23,13.39L1172,227.08l-41.22-13.39Z"/></g><g class="cls-5"><g class="cls-3"><polygon class="cls-6" points="1351.59 525.64 1337.23 547.66 1311.03 546.29 1299.12 522.89 1313.41 500.87 1339.61 502.25 1351.59 525.64"/></g><path class="cls-6" d="M1337.52,548.22l-26.83-1.4-12.2-24,14.64-22.55,26.83,1.4,12.26,24Zm-26.14-2.47,25.57,1.34,14-21.48-11.68-22.83-25.57-1.34-13.94,21.49Z"/></g><g class="cls-5"><g class="cls-3"><polygon class="cls-6" points="992.21 180.63 986.39 189.56 975.77 189 970.94 179.51 976.73 170.59 987.36 171.14 992.21 180.63"/></g><path class="cls-6" d="M986.51,189.79l-10.88-.57-5-9.72,5.93-9.14,10.88.57,5,9.71Zm-10.6-1,10.36.55,5.68-8.71-4.73-9.26-10.37-.54-5.66,8.71Z"/></g><g class="cls-8"><g class="cls-3"><polygon class="cls-6" points="27.05 189.89 21.23 198.81 10.6 198.26 5.77 188.77 11.57 179.84 22.19 180.4 27.05 189.89"/></g><path class="cls-6" d="M21.34,199l-10.88-.57-4.94-9.71,5.93-9.15,10.88.57,5,9.72Zm-10.6-1,10.37.54,5.68-8.71-4.74-9.26-10.37-.54L6,188.78Z"/></g><g class="cls-5"><g class="cls-3"><polygon class="cls-6" points="356.21 486.19 343.55 505.6 320.45 504.39 309.95 483.76 322.55 464.34 345.65 465.55 356.21 486.19"/></g><path class="cls-6" d="M343.81,506.1l-23.66-1.24-10.76-21.13,12.9-19.89L346,465.09l10.82,21.12Zm-23.06-2.18,22.55,1.18,12.35-18.94L345.35,466l-22.55-1.18-12.29,19Z"/></g><g class="cls-9"><path class="cls-10" d="M1165.09,569.09l-29.8,25.83-7.46-38.3Zm-24.52,10.52,8.46-7.34-10.58-3.54Z"/></g><g class="cls-9"><path class="cls-10" d="M339.66,154.43l-38.42-8.88L327.81,117Zm-22.93-13.62,10.91,2.52-3.37-10.64Z"/></g><circle class="cls-2" cx="407.85" cy="198.34" r="8.55"/><g class="cls-9"><path class="cls-10" d="M537.4,98.35q-.52,0-1,0a18,18,0,0,1,2.07-35.94,18,18,0,0,1-1,36Zm0-30.3a12.29,12.29,0,1,0,.73,0C537.85,68.05,537.61,68.05,537.37,68.05Z"/></g><g class="cls-9"><path class="cls-10" d="M1325.37,57.35c-.32,0-.63,0-.94,0a16.11,16.11,0,0,1,1.85-32.17,16.11,16.11,0,0,1-.91,32.2Zm0-27.13a11.08,11.08,0,1,0,.65,0Z"/></g><g class="cls-9"><path class="cls-10" d="M1264.35,380.41c-.43,0-.86,0-1.3,0a22.25,22.25,0,1,1,1.3,0Zm0-37.55a15.46,15.46,0,1,0,.89,0Z"/></g><path class="cls-2" d="M398.32,320.14,382,312.86a9,9,0,0,1,16.36,7.28Z"/><g class="cls-9"><path class="cls-10" d="M172.26,49.28,142.52,25.11l2.79-3.43a19.16,19.16,0,1,1,29.74,24.17ZM155.74,24.45,170.2,36.2a10.31,10.31,0,0,0-14.46-11.75Z"/></g><g class="cls-9"><path class="cls-11" d="M40.47,469.11,18.22,497.37,15,494.8A18,18,0,0,1,37.2,466.54ZM17.42,485l10.81-13.74A9.67,9.67,0,0,0,17.42,485Z"/></g><polygon class="cls-2" points="395.25 245.31 388.65 254.81 395.38 264.22 401.97 254.72 395.25 245.31"/><g class="cls-9"><path class="cls-10" d="M253.29,280.85,230.75,297l-16.18-22.55,22.54-16.18Zm-21.07,7.21,12.1-8.69-8.68-12.1L223.54,276Z"/></g><g class="cls-9"><path class="cls-10" d="M777.48,605.6l-38-12.36,12.35-38,38,12.36Zm-26.36-18.31,20.41,6.64,6.64-20.42-20.42-6.63Z"/></g><g class="cls-9"><path class="cls-10" d="M1018.73,443.38,993.19,442l-11.62-22.81,13.94-21.46,25.54,1.34,11.67,22.81ZM998,434.68l16.78.88,9.2-14.1-7.67-15-16.79-.88-9.16,14.11Z"/></g></svg>