<?xml version="1.0" encoding="utf-8"?>
<!-- Generator: Adobe Illustrator 23.0.5, SVG Export Plug-In . SVG Version: 6.00 Build 0)  -->
<svg version="1.1" id="Layer_1" xmlns="http://www.w3.org/2000/svg" xmlns:xlink="http://www.w3.org/1999/xlink" x="0px" y="0px"
	 viewBox="0 0 43.49 35.15" style="enable-background:new 0 0 43.49 35.15;" xml:space="preserve">
<style type="text/css">
	.st0{fill:#3C5A98;}
</style>
<path class="st0" d="M4.22,17.59c0-5.18,0-10.36,0-15.54c0-0.7,0.26-1.25,0.82-1.67c0.3-0.22,0.63-0.33,1-0.35c0.08,0,0.16,0,0.24,0
	c10.33,0,20.66,0,30.99,0c0.79,0,1.4,0.3,1.81,0.98c0.17,0.28,0.24,0.58,0.26,0.91c0,0.05,0,0.09,0,0.14c0,10.36,0,20.72,0,31.08
	c0,0.87-0.45,1.57-1.22,1.88c-0.23,0.09-0.46,0.14-0.71,0.14c-2.94,0-5.88,0-8.82,0c-0.13,0-0.13-0.05-0.13-0.15
	c0-4.44,0-8.87,0-13.31c0-0.12,0.03-0.15,0.15-0.15c1.41,0,2.82,0,4.23,0.01c0.14,0,0.19-0.03,0.21-0.18
	c0.13-1.06,0.27-2.11,0.41-3.17c0.08-0.62,0.16-1.23,0.24-1.85c0.01-0.09-0.02-0.11-0.09-0.1c-0.04,0-0.07,0-0.11,0
	c-1.62,0-3.24,0-4.87,0c-0.14,0-0.17-0.04-0.17-0.17c0.01-1.14,0-2.28,0.01-3.43c0-0.36,0.04-0.72,0.16-1.06
	c0.23-0.7,0.76-1.06,1.45-1.21c0.52-0.12,1.05-0.09,1.58-0.09c0.7,0,1.39,0,2.09,0c0.12,0,0.15-0.04,0.15-0.15c0-1.49,0-2.97,0-4.46
	c0-0.08,0.02-0.14-0.11-0.15c-1.51-0.15-3.02-0.23-4.54-0.17c-1.4,0.06-2.7,0.45-3.83,1.32c-0.98,0.75-1.62,1.73-2.01,2.89
	c-0.31,0.92-0.42,1.88-0.42,2.85c0,1.22,0,2.45,0,3.67c0,0.14-0.04,0.17-0.18,0.17c-1.41,0-2.82,0-4.23-0.01
	c-0.14,0-0.18,0.03-0.18,0.17c0.01,1.65,0.01,3.3,0,4.96c0,0.14,0.04,0.17,0.18,0.17c1.41,0,2.83,0,4.24-0.01
	c0.12,0,0.16,0.03,0.16,0.16c0,4.44,0,8.87,0,13.31c0,0.11-0.02,0.15-0.14,0.15c-5.55,0-11.11,0-16.66,0
	c-1.12,0-1.96-0.86-1.96-1.99C4.22,27.97,4.22,22.78,4.22,17.59z"/>
</svg>
