<?xml version="1.0" encoding="utf-8"?>
<!-- Generator: Adobe Illustrator 23.0.5, SVG Export Plug-In . SVG Version: 6.00 Build 0)  -->
<svg version="1.1" id="Layer_1" xmlns="http://www.w3.org/2000/svg" xmlns:xlink="http://www.w3.org/1999/xlink" x="0px" y="0px"
	 viewBox="0 0 43.49 35.15" style="enable-background:new 0 0 43.49 35.15;" xml:space="preserve">
<style type="text/css">
	.st0{fill:#E1306C;}
</style>
<g>
	<path class="st0" d="M30.92,5.75c-1.48,0-2.66,1.16-2.67,2.63c-0.01,1.46,1.17,2.65,2.62,2.65c1.47,0.01,2.65-1.16,2.67-2.63
		C33.57,6.98,32.36,5.76,30.92,5.75z"/>
	<path class="st0" d="M21.77,8.75c-4.86-0.01-8.84,3.94-8.84,8.79c0,4.9,3.93,8.85,8.81,8.86c4.87,0,8.82-3.94,8.83-8.79
		C30.58,12.73,26.63,8.76,21.77,8.75z M24.72,23.49c-0.93,0.49-1.93,0.73-3.08,0.74c-2.87-0.01-5.52-2.11-6.2-5.01
		c-0.7-2.98,0.53-5.94,3.09-7.44c3.31-1.94,7.62-0.5,9.15,3.06C29.08,18.12,27.79,21.87,24.72,23.49z"/>
	<path class="st0" d="M39,8.82c0-0.25-0.01-0.5-0.03-0.76C38.68,3.53,34.92,0,30.38,0c-5.75,0-11.51,0-17.26,0
		c-0.7,0-1.39,0.08-2.07,0.25C7.2,1.21,4.5,4.64,4.49,8.62c-0.01,5.97,0,11.94,0,17.91c0,0.8,0.11,1.59,0.33,2.37
		c1.06,3.69,4.48,6.27,8.36,6.25c5.7-0.03,11.41-0.01,17.11-0.01c2.37,0,4.42-0.82,6.1-2.47c1.72-1.69,2.58-3.77,2.59-6.18
		c0.01-2.97,0-5.95,0-8.92C39,14.65,39,11.74,39,8.82z M36.32,17.59c0,2.48,0,4.97,0,7.45c0,3.44-2.2,6.3-5.52,7.17
		c-0.59,0.15-1.19,0.22-1.8,0.22c-4.84,0-9.68,0.01-14.52,0c-3.3-0.01-6.1-2.11-7.04-5.29c-0.18-0.6-0.27-1.21-0.28-1.83
		c0-5.15-0.01-10.3,0-15.45c0.01-3.12,2.21-5.97,5.22-6.83c0.7-0.2,1.4-0.3,2.13-0.3c4.81,0,9.62,0,14.43,0
		c3.57,0,6.51,2.39,7.24,5.89c0.09,0.44,0.13,0.88,0.13,1.33C36.32,12.49,36.32,15.04,36.32,17.59z"/>
	<path class="st0" d="M30.92,5.75c-1.48,0-2.66,1.16-2.67,2.63c-0.01,1.46,1.17,2.65,2.62,2.65c1.47,0.01,2.65-1.16,2.67-2.63
		C33.57,6.98,32.36,5.76,30.92,5.75z"/>
</g>
</svg>
