<?xml version="1.0" encoding="utf-8"?>
<!-- Generator: Adobe Illustrator 23.0.5, SVG Export Plug-In . SVG Version: 6.00 Build 0)  -->
<svg version="1.1" id="Layer_1" xmlns="http://www.w3.org/2000/svg" xmlns:xlink="http://www.w3.org/1999/xlink" x="0px" y="0px"
	 viewBox="0 0 43.49 35.15" style="enable-background:new 0 0 43.49 35.15;" xml:space="preserve">
<style type="text/css">
	.st0{fill:#2AA8DF;}
</style>
<path class="st0" d="M29.43,0.03c0.43,0,0.87,0,1.3,0c0.27,0.07,0.54,0.07,0.81,0.12c1.91,0.34,3.55,1.2,4.91,2.59
	c0.07,0.08,0.14,0.09,0.24,0.07c1.54-0.32,3.02-0.83,4.43-1.55c0.35-0.18,0.69-0.36,1.07-0.56c-0.33,1.04-0.83,1.94-1.48,2.77
	c-0.65,0.83-1.43,1.52-2.32,2.1c1.72-0.19,3.36-0.65,4.95-1.34c0,0.04,0,0.05-0.01,0.06c-0.03,0.05-0.06,0.09-0.09,0.14
	c-1.13,1.64-2.5,3.05-4.1,4.24c-0.14,0.11-0.2,0.21-0.19,0.39c0.09,1.97-0.08,3.92-0.49,5.85C37.3,20.43,34.7,25.16,30.53,29
	c-1.79,1.65-3.8,2.97-6.01,3.99c-1.9,0.88-3.89,1.5-5.96,1.86c-0.99,0.17-1.98,0.34-2.98,0.34c-1.01,0-2.03-0.02-3.04,0
	c-1.36,0.03-2.7-0.17-4.02-0.44c-2.94-0.61-5.67-1.72-8.22-3.3c-0.06-0.03-0.13-0.06-0.16-0.14c4.83,0.47,9.17-0.74,13.05-3.67
	c-0.05-0.02-0.06-0.03-0.08-0.03c-0.05-0.01-0.1-0.01-0.14-0.01c-0.69-0.03-1.37-0.13-2.03-0.33c-2.91-0.89-4.89-2.78-5.95-5.62
	c-0.07-0.2-0.07-0.21,0.14-0.18c1.06,0.18,2.12,0.16,3.17-0.04c0.18-0.03,0.36-0.05,0.54-0.14c-0.02-0.02-0.03-0.03-0.04-0.03
	c-0.08-0.02-0.16-0.04-0.25-0.06c-2-0.52-3.64-1.58-4.9-3.21c-1.22-1.58-1.82-3.37-1.85-5.36c0-0.1-0.02-0.19,0.14-0.11
	c0.92,0.5,1.9,0.81,2.94,0.96c0.29,0.04,0.58,0.08,0.91,0.07c-0.06-0.05-0.08-0.07-0.11-0.1c-2.28-1.66-3.56-3.89-3.77-6.71
	c-0.13-1.75,0.26-3.39,1.1-4.93c0.07-0.12,0.1-0.11,0.18-0.01c0.48,0.59,0.99,1.15,1.53,1.69c1.77,1.79,3.75,3.28,5.96,4.47
	c1.65,0.89,3.38,1.59,5.19,2.1c1.76,0.5,3.55,0.79,5.38,0.9c0.13,0.01,0.18,0,0.14-0.16c-0.33-1.59-0.28-3.18,0.28-4.71
	c1.18-3.24,3.48-5.21,6.86-5.9C28.81,0.11,29.12,0.08,29.43,0.03z"/>
</svg>
