<?xml version="1.0" encoding="utf-8"?>
<!-- Generator: Adobe Illustrator 23.0.5, SVG Export Plug-In . SVG Version: 6.00 Build 0)  -->
<svg version="1.1" id="Layer_1" xmlns="http://www.w3.org/2000/svg" xmlns:xlink="http://www.w3.org/1999/xlink" x="0px" y="0px"
	 viewBox="0 0 512 512" style="enable-background:new 0 0 512 512;" xml:space="preserve">
<style type="text/css">
	.st0{fill:#3488B7;}
	.st1{fill:#1D263A;}
</style>
<g>
	<path class="st0" d="M448,439.7V496H64v-56.3c0-36.3,24.5-68.1,59.6-77.4l52.4-15.1l24-9.2l56,70l56-70l24,9.2l25.3,7.3l27,7.8
		C423.5,371.6,448,403.3,448,439.7L448,439.7z"/>
	<path class="st0" d="M368,128c-2.7-1.1-5.3-2.2-8-3.3c-69.3-27.6-138.7-27.6-208,0c-2.7,1.1-5.3,2.2-8,3.3c0-57.4,46.6-104,104-104
		h16c28.1,0,54.9,11.3,74.5,31.4l0,0C357.4,74.8,368,100.9,368,128z"/>
	<path class="st0" d="M320,288v4.1c-2.6,2.2-5.3,4.3-8,6.3C293.4,312,272.6,320,256,320s-37.4-8-56-21.6c-2.7-2-5.4-4.1-8-6.3V288
		c0-35.3,28.7-64,64-64S320,252.7,320,288z"/>
	<path class="st0" d="M296.8,29.3l7.8-7.8c7.6-7.6,19.9-7.6,27.6,0l6.4,6.4c7.6,7.6,7.6,19.9,0,27.6L296.8,29.3z"/>
	<circle class="st0" cx="288" cy="424" r="8"/>
	<circle class="st0" cx="288" cy="464" r="8"/>
</g>
<g>
	<circle class="st1" cx="208" cy="184" r="16"/>
	<circle class="st1" cx="304" cy="184" r="16"/>
	<path class="st1" d="M390.5,354.6l-51.9-15l-18.5-7.1v-30.1c22.4-17.3,41.2-42.1,46.5-70.4h5.5c15.5,0,28-12.5,28-28v-24
		c0-15.5-12.5-28-28-28h-4v-16c4.4,0,8-3.6,8-8c0-26.8-9.6-52.8-27.2-73.1c5.9-10.7,4-24-4.6-32.7l-6.4-6.4
		c-10.7-10.7-28.1-10.7-38.9,0l-4.4,4.4c-9.9-2.8-20.2-4.2-30.5-4.2h-16c-61.8,0.1-111.9,50.2-112,112c0,4.4,3.6,8,8,8c0,0,0,0,0,0
		v16h-4c-15.5,0-28,12.5-28,28v24c0,15.5,12.5,28,28,28h5.5c5.3,28.2,24,53,46.5,70.4v30.1l-18.6,7.1l-51.9,15
		C82.9,364.8,56,399.7,56,439.7V496c0,4.4,3.6,8,8,8h384c4.4,0,8-3.6,8-8v-56.3C456,399.7,429.1,364.8,390.5,354.6L390.5,354.6z
		 M368,168h4c6.6,0,12,5.4,12,12v24c0,6.6-5.4,12-12,12h-4V168z M144,216h-4c-6.6,0-12-5.4-12-12v-24c0-6.6,5.4-12,12-12h4V216z
		 M326.5,27.2l6.4,6.4c2.3,2.3,3.6,5.6,3.3,8.9c-7.6-6.4-16.1-11.8-25.1-16C315.6,22.7,322.3,23,326.5,27.2z M248,32h16
		c48.3,0.1,89,35.9,95.2,83.8C325,102.7,290.5,96.1,256,96.1s-68.9,6.6-103.2,19.7C159,67.9,199.7,32.1,248,32z M185.3,274.6
		C163.5,250.9,160,228.2,160,216v-85.8c32-12.1,64.2-18.2,96-18.2s64,6.1,96,18.2V216c0,12.2-3.5,34.9-25.3,58.6
		c-7.4-39.1-45.1-64.7-84.2-57.3C213.5,222.8,190.8,245.5,185.3,274.6z M312,288v0.4c-18.2,14.5-39.5,23.6-56,23.6
		s-37.8-9.1-56-23.6V288c0-30.9,25.1-56,56-56S312,257.1,312,288z M248,488H128v-48c0-4.4-3.6-8-8-8s-8,3.6-8,8v48H72v-48.3
		c0-32.7,22.1-61.3,53.7-69.6c0.1,0,0.1,0,0.2,0l52.4-15.1c0.2-0.1,0.4-0.1,0.6-0.2l18.5-7.1l50.6,63.2V488z M208,335.2v-22.1
		c16.4,9.5,33.5,14.9,48,14.9s31.6-5.4,48-14.9v22.1l-48,60L208,335.2z M440,488h-40v-48c0-4.4-3.6-8-8-8s-8,3.6-8,8v48H264v-77.2
		l50.6-63.2l18.5,7.1c0.2,0.1,0.4,0.1,0.7,0.2l52.4,15.1c0.1,0,0.1,0,0.2,0c31.6,8.3,53.7,36.9,53.7,69.6L440,488z"/>
	<path class="st1" d="M280,272c0-4.4-3.6-8-8-8h-32c-4.4,0-8,3.6-8,8s3.6,8,8,8h32C276.4,280,280,276.4,280,272z"/>
	<circle class="st1" cx="288" cy="424" r="8"/>
	<circle class="st1" cx="288" cy="464" r="8"/>
</g>
</svg>
