<?xml version="1.0" encoding="utf-8"?>
<!-- Generator: Adobe Illustrator 23.0.5, SVG Export Plug-In . SVG Version: 6.00 Build 0)  -->
<svg version="1.1" id="Layer_1" xmlns="http://www.w3.org/2000/svg" xmlns:xlink="http://www.w3.org/1999/xlink" x="0px" y="0px"
	 viewBox="0 0 512 512" style="enable-background:new 0 0 512 512;" xml:space="preserve">
<style type="text/css">
	.st0{fill:#3488B7;}
	.st1{fill:none;}
	.st2{fill:#1D263A;}
</style>
<g>
	<path class="st0" d="M464,97v319l-208,81V386.8l116.7-42.7h3.3l-1.6-0.6l1.6-0.6V170.1l-1.5-0.5l88.6-72.9L464,97z"/>
	<path class="st0" d="M139.3,344.1H136l1.6-0.6L139.3,344.1z"/>
	<path class="st0" d="M376,344.1h-3.3l1.6-0.6L376,344.1z"/>
	<path class="st0" d="M256,126.2v174l-118.4,43.3l-1.6-0.6V170.1l1.5-0.5L256,126.2z"/>
	<path class="st0" d="M256,126.2v174l-118.4,43.3l-1.6-0.6V170.1l1.5-0.5L256,126.2z"/>
	<path class="st0" d="M139.3,344.1H136l1.6-0.6L139.3,344.1z"/>
	<path class="st0" d="M376,344.1h-3.3l1.6-0.6L376,344.1z"/>
</g>
<path class="st1" d="M138,170l-0.5-0.4"/>
<path class="st1" d="M48.8,96.7L48,96"/>
<path class="st1" d="M374.5,169.6L374,170"/>
<path class="st1" d="M464,96l-0.8,0.7"/>
<path class="st2" d="M466.9,89.5l-208-81c-1.9-0.7-3.9-0.7-5.8,0l-208,81C42,90.7,40,93.7,40,97v319c0,3.3,2,6.3,5.1,7.5l208,81
	c1.9,0.7,3.9,0.7,5.8,0l208-81c3.1-1.2,5.1-4.2,5.1-7.5V97C472,93.7,470,90.7,466.9,89.5z M256,24.6l191.5,74.6l-74.8,61.2
	l-113.9-41.7c-1.8-0.7-3.7-0.7-5.5,0l-113.9,41.7L64.5,99.2L256,24.6z M368,175.7v157l-104-38v-157L368,175.7z M248,137.7v157
	l-104,38v-157L248,137.7z M248,485.3L56,410.5V112.9l72,58.9v171.1c0,3.4,2.1,6.4,5.3,7.5l114.8,42V485.3z M256,378.3l-95.1-34.8
	l95.1-34.8l95,34.8L256,378.3z M456,410.5l-192,74.8v-92.9l114.8-42c3.2-1.2,5.2-4.2,5.3-7.5V171.8l72-58.9V410.5z"/>
</svg>
