<?xml version="1.0" encoding="utf-8"?>
<!-- Generator: Adobe Illustrator 23.0.5, SVG Export Plug-In . SVG Version: 6.00 Build 0)  -->
<svg version="1.1" id="Layer_1" xmlns="http://www.w3.org/2000/svg" xmlns:xlink="http://www.w3.org/1999/xlink" x="0px" y="0px"
	 viewBox="0 0 90 90" style="enable-background:new 0 0 90 90;" xml:space="preserve">
<style type="text/css">
	.st0{fill:#2AA7DF;}
</style>
<title>Ic_laptop</title>
<desc>Created with Sketch.</desc>
<g id="Ic_laptop">
	<g id="laptop">
		<path id="Path" class="st0" d="M74.2,24.1H15.8c-1.1,0-1.9,0.9-1.9,1.9v28.7c0,1,0.9,1.9,1.9,1.9s1.9-0.9,1.9-1.9V27.9h54.5v26.8
			l0,0c0,1,0.9,1.9,1.9,1.9c1.1,0,1.9-0.9,1.9-1.9V26C76.1,25,75.2,24.1,74.2,24.1z"/>
		<path id="Shape" class="st0" d="M88.3,61.4h-3.6V20.7c0-3.2-2.6-5.9-5.9-5.9H11.2c-3.2,0-5.9,2.6-5.9,5.9v40.7H1.7
			c-1,0-1.7,0.8-1.7,1.7v3.4c0,4.7,3.9,8.6,8.6,8.6h72.8c4.7,0,8.6-3.9,8.6-8.6v-3.4C90,62.2,89.2,61.4,88.3,61.4z M9.2,20.7
			c0-1.1,0.9-2,2-2h67.7c1.1,0,2,0.9,2,2v40.7H54.6c-0.1,0-0.3,0-0.4,0c-0.8,0.2-1.4,0.9-1.4,1.7c0,1.5-1.2,2.7-2.7,2.7H39.9
			c-1.5,0-2.7-1.2-2.7-2.7c0-1-0.8-1.8-1.8-1.7H9.2V20.7z M86.5,66.6L86.5,66.6c0,2.8-2.3,5.1-5.1,5.1H8.6c-2.8,0-5.1-2.3-5.1-5.1
			v-1.7H34c0.8,2.5,3.1,4.4,5.9,4.4h10.3c2.8,0,5.1-1.9,5.9-4.4h30.5L86.5,66.6L86.5,66.6z"/>
		<path class="st0" d="M47.7,34.9c-0.7-0.7-1.9-0.7-2.7,0l-12,12c-0.7,0.7-0.7,1.9,0,2.7c0.4,0.4,0.9,0.6,1.3,0.6
			c0.5,0,1-0.2,1.3-0.6l12-12C48.4,36.8,48.4,35.6,47.7,34.9z"/>
		<path class="st0" d="M54.1,42.3c-0.8-0.7-2.1-0.7-2.9,0l-5.2,4.6c-0.8,0.7-0.8,1.9,0,2.6c0.4,0.4,0.9,0.5,1.5,0.5
			c0.5,0,1.1-0.2,1.5-0.5l5.2-4.6C54.9,44.2,54.9,43,54.1,42.3z"/>
	</g>
</g>
</svg>
