<?xml version="1.0" encoding="utf-8"?>
<!-- Generator: Adobe Illustrator 23.0.5, SVG Export Plug-In . SVG Version: 6.00 Build 0)  -->
<svg version="1.1" id="Layer_1" xmlns="http://www.w3.org/2000/svg" xmlns:xlink="http://www.w3.org/1999/xlink" x="0px" y="0px"
	 viewBox="0 0 512 512" style="enable-background:new 0 0 512 512;" xml:space="preserve">
<style type="text/css">
	.st0{fill:#3488B7;}
	.st1{fill:none;}
	.st2{fill:#1D263A;}
</style>
<g>
	<path class="st0" d="M208,269.2V304h-24v24h16v32H16V108c0-11,8.9-20,20-20c0,0,0,0,0,0h141.6c-44.2,43.3-44.9,114.2-1.6,158.4
		C185.2,255.8,196.1,263.6,208,269.2L208,269.2z"/>
	<path class="st0" d="M496,108v252H312v-32h16v-24h-24v-34.8c55.9-26.5,79.7-93.3,53.2-149.2c-5.7-11.9-13.4-22.8-22.8-32H476
		C487,88,496,96.9,496,108C496,108,496,108,496,108L496,108z"/>
	<path class="st0" d="M320,464H192l16-56h96L320,464z"/>
</g>
<g>
	<path class="st1" d="M352.2,71.8l5.7-5.7"/>
	<path class="st1" d="M154.2,269.8l5.7-5.7"/>
	<path class="st1" d="M352.2,264.2l5.7,5.7"/>
	<path class="st1" d="M154.2,66.2l5.7,5.7"/>
</g>
<g>
	<path class="st2" d="M476,80H341.8c-1.2,0-2.4,0.3-3.5,0.8c-46.2-43.7-118.5-43.7-164.7,0c-1.1-0.5-2.3-0.8-3.4-0.8H36
		C20.5,80,8,92.5,8,108v280c0,15.5,12.5,28,28,28h161.4L186,456h-42c-4.4,0-8,3.6-8,8v24c0,4.4,3.6,8,8,8h224c4.4,0,8-3.6,8-8v-24
		c0-4.4-3.6-8-8-8h-42l-11.4-40H476c15.5,0,28-12.5,28-28V108C504,92.5,491.5,80,476,80L476,80z M256,64c57.4,0,104,46.6,104,104
		c0,40.2-23.1,76.7-59.4,94c-2.8,1.3-4.6,4.1-4.6,7.2V296h-8V168c0-4.4-3.6-8-8-8s-8,3.6-8,8v128h-32V168c0-4.4-3.6-8-8-8
		s-8,3.6-8,8v128h-8v-26.8c0-3.1-1.8-5.9-4.6-7.2c-51.9-24.6-74-86.7-49.4-138.6C179.3,87.1,215.8,64,256,64L256,64z M192,320v-8
		h128v8H192z M304,336v16h-96v-16H304z M24,108c0-6.6,5.4-12,12-12h124.1c-39.8,53-29.1,128.2,23.9,168c5.1,3.8,10.5,7.2,16.1,10.2
		V296h-16c-4.4,0-8,3.6-8,8v24c0,4.4,3.6,8,8,8h8v16H24V108z M360,472v8H152v-8H360z M202.6,456l11.4-40H298l11.4,40H202.6z
		 M488,388c0,6.6-5.4,12-12,12H36c-6.6,0-12-5.4-12-12v-20h464V388z M488,352H320v-16h8c4.4,0,8-3.6,8-8v-24c0-4.4-3.6-8-8-8h-16
		v-21.9c58.6-30.9,81-103.4,50.2-162c-3-5.6-6.4-11-10.2-16.1H476c6.6,0,12,5.4,12,12V352z"/>
	<path class="st2" d="M104,376H48c-4.4,0-8,3.6-8,8s3.6,8,8,8h56c4.4,0,8-3.6,8-8S108.4,376,104,376z"/>
	<path class="st2" d="M136,376h-8c-4.4,0-8,3.6-8,8s3.6,8,8,8h8c4.4,0,8-3.6,8-8S140.4,376,136,376z"/>
	<path class="st2" d="M256,224c4.4,0,8-3.6,8-8v-24c0-4.4-3.6-8-8-8s-8,3.6-8,8v24C248,220.4,251.6,224,256,224z"/>
	<path class="st2" d="M392,176h8c4.4,0,8-3.6,8-8s-3.6-8-8-8h-8c-4.4,0-8,3.6-8,8S387.6,176,392,176z"/>
	<path class="st2" d="M112,176h8c4.4,0,8-3.6,8-8s-3.6-8-8-8h-8c-4.4,0-8,3.6-8,8S107.6,176,112,176z"/>
	<path class="st2" d="M352.2,79.8c2.1,0,4.2-0.8,5.7-2.3l5.7-5.7c3.1-3.1,3.1-8.2,0-11.3c-3.1-3.1-8.2-3.1-11.3,0l-5.7,5.7
		c-3.1,3.1-3.1,8.2,0,11.3C348,79,350,79.8,352.2,79.8L352.2,79.8z"/>
	<path class="st2" d="M154.2,277.8c2.1,0,4.2-0.8,5.7-2.3l5.7-5.7c3.1-3.1,3.1-8.2,0-11.3s-8.2-3.1-11.3,0l-5.7,5.7
		c-3.1,3.1-3.1,8.2,0,11.3C150,277,152.1,277.8,154.2,277.8L154.2,277.8z"/>
	<path class="st2" d="M357.8,258.5c-3.1-3.1-8.2-3.1-11.3,0s-3.1,8.2,0,11.3l5.7,5.7c3.1,3.1,8.2,3.1,11.3,0s3.1-8.2,0-11.3
		L357.8,258.5z"/>
	<path class="st2" d="M154.2,77.5c3.1,3.1,8.2,3.1,11.3,0c3.1-3.1,3.1-8.2,0-11.3l-5.7-5.7c-3.1-3.1-8.2-3.1-11.3,0
		c-3.1,3.1-3.1,8.2,0,11.3L154.2,77.5z"/>
	<path class="st2" d="M256,40c4.4,0,8-3.6,8-8v-8c0-4.4-3.6-8-8-8s-8,3.6-8,8v8C248,36.4,251.6,40,256,40z"/>
</g>
</svg>
