<?xml version="1.0" encoding="utf-8"?>
<!-- Generator: Adobe Illustrator 23.0.5, SVG Export Plug-In . SVG Version: 6.00 Build 0)  -->
<svg version="1.1" id="Layer_1" xmlns="http://www.w3.org/2000/svg" xmlns:xlink="http://www.w3.org/1999/xlink" x="0px" y="0px"
	 viewBox="0 0 512 512" style="enable-background:new 0 0 512 512;" xml:space="preserve">
<style type="text/css">
	.st0{fill:#3488B7;}
	.st1{fill:#1D263A;}
</style>
<g>
	<path class="st0" d="M448,16v400h-32l-8-10.8l-40-54.1V96H179.5l-29.6-40l-5.9-8V16H448z"/>
	<path class="st0" d="M104,56v32l5.9,8H368v349.2l8,10.8h32V56H104z"/>
</g>
<g>
	<path class="st1" d="M448,8H144c-4.4,0-8,3.6-8,8v32h-32c-4.4,0-8,3.6-8,8v32H64c-4.4,0-8,3.6-8,8v400c0,4.4,3.6,8,8,8h304
		c4.4,0,8-3.6,8-8v-32h32c4.4,0,8-3.6,8-8v-32h32c4.4,0,8-3.6,8-8V16C456,11.6,452.4,8,448,8z M360,488H72V104h288V488z M400,448
		h-24V96c0-4.4-3.6-8-8-8H112V64h288V448z M440,408h-24V56c0-4.4-3.6-8-8-8H152V24h288V408z"/>
	<path class="st1" d="M96,136h64c4.4,0,8-3.6,8-8c0-4.4-3.6-8-8-8H96c-4.4,0-8,3.6-8,8C88,132.4,91.6,136,96,136z"/>
	<path class="st1" d="M184,136h8c4.4,0,8-3.6,8-8c0-4.4-3.6-8-8-8h-8c-4.4,0-8,3.6-8,8C176,132.4,179.6,136,184,136z"/>
</g>
</svg>
