<?xml version="1.0" encoding="utf-8"?>
<!-- Generator: Adobe Illustrator 23.0.5, SVG Export Plug-In . SVG Version: 6.00 Build 0)  -->
<svg version="1.1" id="Layer_1" xmlns="http://www.w3.org/2000/svg" xmlns:xlink="http://www.w3.org/1999/xlink" x="0px" y="0px"
	 viewBox="0 0 106 23.9" style="enable-background:new 0 0 106 23.9;" xml:space="preserve">
<style type="text/css">
	.st0{fill:#1D263A;}
</style>
<title>logo-simple</title>
<desc>Created with Sketch.</desc>
<g>
	<path class="st0" d="M11.1,18.9l-4.2-5.7l-4.1,5.7H0.5l5.2-7.1L0.9,5h2.3L7,10.3L10.8,5H13l-4.9,6.7l5.2,7.2H11.1z"/>
	<path class="st0" d="M17.6,5h2v13.9h-2V5z"/>
	<path class="st0" d="M38,5v13.9h-1.6L28.1,8.5v10.3h-2V5h1.6l8.3,10.3V5H38z"/>
	<path class="st0" d="M54.6,17.1v1.7H44.6V5h9.8v1.7h-7.8V11h7v1.7h-7v4.5H54.6z"/>
	<path class="st0" d="M69.5,18.9l-3-4.3c-0.4,0-0.7,0-0.9,0h-3.4v4.2h-2V5h5.4c1.8,0,3.2,0.4,4.2,1.3c1,0.9,1.5,2,1.5,3.5
		c0,1.1-0.3,2-0.8,2.7c-0.5,0.8-1.3,1.3-2.3,1.6l3.3,4.7H69.5z M68.4,12.1c0.7-0.5,1-1.3,1-2.3c0-1-0.3-1.8-1-2.3s-1.6-0.8-2.9-0.8
		h-3.4V13h3.4C66.8,13,67.8,12.7,68.4,12.1z"/>
	<path class="st0" d="M86.6,11.8h1.9v5.4c-0.7,0.6-1.5,1-2.4,1.3c-0.9,0.3-1.9,0.5-2.9,0.5c-1.4,0-2.7-0.3-3.8-0.9
		c-1.1-0.6-2-1.5-2.6-2.5c-0.6-1.1-1-2.3-1-3.6c0-1.3,0.3-2.6,1-3.6c0.6-1.1,1.5-1.9,2.7-2.5c1.1-0.6,2.4-0.9,3.8-0.9
		c1.1,0,2.1,0.2,3,0.5C87.2,5.7,88,6.3,88.6,7l-1.2,1.2c-1.1-1.1-2.4-1.6-4-1.6c-1.1,0-2,0.2-2.8,0.7c-0.8,0.5-1.5,1.1-2,1.9
		c-0.5,0.8-0.7,1.7-0.7,2.7c0,1,0.2,1.9,0.7,2.7c0.5,0.8,1.1,1.4,2,1.9c0.8,0.5,1.8,0.7,2.8,0.7c1.2,0,2.3-0.3,3.2-0.9V11.8z"/>
	<path class="st0" d="M100,14.1v4.8h-2V14l-5.5-9h2.1l4.4,7.3l4.5-7.3h2L100,14.1z"/>
</g>
</svg>
