<?xml version="1.0" encoding="utf-8"?>
<!-- Generator: Adobe Illustrator 23.0.5, SVG Export Plug-In . SVG Version: 6.00 Build 0)  -->
<svg version="1.1" id="Layer_1" xmlns="http://www.w3.org/2000/svg" xmlns:xlink="http://www.w3.org/1999/xlink" x="0px" y="0px"
	 viewBox="0 0 512 512" style="enable-background:new 0 0 512 512;" xml:space="preserve">
<style type="text/css">
	.st0{fill:#3488B7;}
	.st1{fill:#1D263A;}
</style>
<g>
	<path class="st0" d="M184,144v56h88v88h-80v144h144V144H184z M112,363l21-56H91L112,363z M88,110v173h48V110H88z M491.3,413.2
		l4.7,18.7c0-0.2,0-0.4,0-0.6v-0.1C495.9,424.9,494.3,418.7,491.3,413.2L491.3,413.2z"/>
	<path class="st0" d="M496,432l0-0.2l-4.7-18.7c3,5.5,4.6,11.7,4.7,18v0.1C496,431.5,496,431.7,496,432L496,432z"/>
	<path class="st0" d="M184,144v56h88v88h-80v144h144V144H184z M88,144v139h48V144H88z M112,363l21-56H91L112,363z"/>
	<path class="st0" d="M192,288h144v144H192V288z"/>
	<path class="st0" d="M336,144v144h-64v-88h-88v-56H336z"/>
	<path class="st0" d="M496,110v320c0-22.1-17.9-40-40-40s-40,17.9-40,40V110c0-22.1,17.9-40,40-40S496,87.9,496,110z"/>
	<path class="st0" d="M133,307l-21,56l-21-56H133z"/>
	<path class="st0" d="M88,99h48v184H88V99z"/>
	<path class="st0" d="M88,99h48v184H88V99z"/>
</g>
<g>
	<path class="st1" d="M456,64c-23.4,0-43.4,16.9-47.3,40H144V68c0-15.5-12.5-28-28-28h-8c-15.5,0-28,12.5-28,28v36H16
		c-4.4,0-8,3.6-8,8v360c0,4.4,3.6,8,8,8h440c26.5,0,48-21.5,48-48V112C504,85.5,482.5,64,456,64L456,64z M96,68c0-6.6,5.4-12,12-12
		h8c6.6,0,12,5.4,12,12v20H96V68z M96,104h8v120c0,4.4,3.6,8,8,8s8-3.6,8-8V104h8v168H96V104z M96,288h32v6.5l-0.5,1.5H96.5
		l-0.5-1.5V288z M121.5,312l-9.5,25.2l-9.5-25.2H121.5z M80.5,298.8l24,64c1.6,4.1,6.2,6.2,10.3,4.7c2.2-0.8,3.9-2.5,4.7-4.7l24-64
		c0.3-0.9,0.5-1.9,0.5-2.8V152h32v48c0,4.4,3.6,8,8,8h80v72h-72c-4.4,0-8,3.6-8,8v136H56V152h24v144C80,297,80.2,297.9,80.5,298.8z
		 M280,280v-80c0-4.4-3.6-8-8-8h-80v-40h136v128H280z M328,296v128H200V296H328z M456,464H24V120h56v16H48c-4.4,0-8,3.6-8,8v288
		c0,4.4,3.6,8,8,8h288c4.4,0,8-3.6,8-8V144c0-4.4-3.6-8-8-8H144v-16h264v312c0,4.4,3.6,8,8,8s8-3.6,8-8c0-17.7,14.3-32,32-32
		s32,14.3,32,32S473.7,464,456,464z M488,396.3c-18.2-16.3-45.8-16.3-64,0V112c0-17.7,14.3-32,32-32s32,14.3,32,32V396.3z"/>
	<path class="st1" d="M104,256c0,4.4,3.6,8,8,8s8-3.6,8-8v-8c0-4.4-3.6-8-8-8s-8,3.6-8,8V256z"/>
</g>
</svg>
